<?xml version="1.0" encoding="utf-8"?>
<!-- Generator: Adobe Illustrator 23.0.1, SVG Export Plug-In . SVG Version: 6.00 Build 0)  -->
<svg version="1.1" id="图层_1" xmlns="http://www.w3.org/2000/svg" xmlns:xlink="http://www.w3.org/1999/xlink" x="0px" y="0px"
	 viewBox="0 0 20 20" style="enable-background:new 0 0 20 20;" xml:space="preserve">
<style type="text/css">
	.st0{opacity:1.000000e-02;fill:none;stroke:#FFFFFF;stroke-width:0.5;enable-background:new    ;}
	.st1{fill:#8C8C8C;}
</style>
<title>图标/平台/收起/线性</title>
<desc>Created with Sketch.</desc>
<g id="效果图">
	<g transform="translate(-1421.000000, -310.000000)">
		<g id="第二步确定" transform="translate(1292.000000, 249.000000)">
			<g id="下--拉" transform="translate(129.000000, 61.000000)">
				<g>
					<rect id="矩形" x="0.2" y="0.2" class="st0" width="19.5" height="19.5"/>
					<path id="形状" class="st1" d="M10,14.1l7.3-4.4c0.3-0.2,0.7-0.1,0.8,0.2c0.2,0.3,0.1,0.6-0.2,0.8l0,0l-7.6,4.5
						c-0.2,0.1-0.4,0.1-0.6,0l0,0l-7.6-4.5c-0.3-0.2-0.4-0.5-0.2-0.8c0.2-0.3,0.5-0.4,0.8-0.2l0,0L10,14.1l7.3-4.4L10,14.1z M10,9
						l7.3-4.4c0.3-0.2,0.7-0.1,0.8,0.2c0.2,0.3,0.1,0.6-0.2,0.8l0,0l-7.6,4.5c-0.2,0.1-0.4,0.1-0.6,0l0,0L2.1,5.7
						C1.8,5.5,1.7,5.1,1.9,4.8c0.2-0.3,0.5-0.4,0.8-0.2l0,0L10,9l7.3-4.4L10,9z"/>
				</g>
			</g>
		</g>
	</g>
</g>
</svg>
